<svg width="28" height="28" viewBox="0 0 28 28" fill="none" xmlns="http://www.w3.org/2000/svg">
<path d="M4.66669 8.66663C4.66669 8.43092 4.66669 8.31307 4.73991 8.23985C4.81313 8.16663 4.93098 8.16663 5.16669 8.16663H22.8334C23.0691 8.16663 23.1869 8.16663 23.2601 8.23985C23.3334 8.31307 23.3334 8.43092 23.3334 8.66663V9.04343C23.3334 9.17489 23.3334 9.24062 23.3045 9.29532C23.2992 9.30545 23.2932 9.31519 23.2865 9.32449C23.2505 9.37474 23.1917 9.40413 23.0741 9.46292C22.1335 9.93324 21.6631 10.1684 21.3748 10.5704C21.3215 10.6448 21.2733 10.7227 21.2306 10.8037C21 11.2414 21 11.7672 21 12.8188V19.3333C21 21.2189 21 22.1617 20.4142 22.7475C19.8284 23.3333 18.8856 23.3333 17 23.3333H11C9.1144 23.3333 8.17159 23.3333 7.58581 22.7475C7.00002 22.1617 7.00002 21.2189 7.00002 19.3333V12.8188C7.00002 11.7672 7.00002 11.2414 6.76943 10.8037C6.72675 10.7227 6.67856 10.6448 6.62521 10.5704C6.3369 10.1684 5.86658 9.93324 4.92595 9.46292C4.80837 9.40413 4.74958 9.37474 4.71354 9.32449C4.70687 9.31519 4.70085 9.30545 4.69551 9.29532C4.66669 9.24062 4.66669 9.17489 4.66669 9.04343V8.66663Z" fill="#7E869E" fill-opacity="0.25"/>
<path d="M11.7462 5.09898C11.8791 4.97495 12.172 4.86534 12.5795 4.78717C12.987 4.709 13.4863 4.66663 14 4.66663C14.5136 4.66663 15.0129 4.709 15.4204 4.78717C15.8279 4.86534 16.1209 4.97495 16.2538 5.09898" stroke="#222222" stroke-linecap="round"/>
<rect x="16.3333" y="12.8334" width="1.16667" height="7" rx="0.583333" fill="#222222"/>
<rect x="10.5" y="12.8334" width="1.16667" height="7" rx="0.583333" fill="#222222"/>
</svg>
