<svg width="25" height="25" viewBox="0 0 25 25" fill="none" xmlns="http://www.w3.org/2000/svg">
<path d="M10.015 2.92503C11.413 2.92352 12.7836 3.31277 13.9721 4.04885C15.1606 4.78492 16.1197 5.83853 16.7412 7.09076C17.3627 8.34299 17.6218 9.744 17.4894 11.1357C17.3569 12.5274 16.8381 13.8543 15.9915 14.9668L20.7394 19.7069C20.919 19.8867 21.0234 20.1281 21.0314 20.382C21.0394 20.6359 20.9504 20.8834 20.7826 21.0742C20.6148 21.2649 20.3806 21.3846 20.1277 21.409C19.8748 21.4333 19.6222 21.3605 19.421 21.2053L19.3269 21.1224L14.577 16.3843C13.6307 17.1074 12.5259 17.5947 11.3539 17.806C10.1819 18.0173 8.97644 17.9465 7.83725 17.5994C6.69807 17.2523 5.65791 16.6389 4.80285 15.81C3.94779 14.9811 3.30242 13.9604 2.92014 12.8326C2.53785 11.7047 2.42964 10.502 2.60447 9.32402C2.77929 8.14603 3.23212 7.0266 3.92548 6.05837C4.61885 5.09013 5.53281 4.30093 6.59175 3.75606C7.65068 3.21119 8.82415 2.92632 10.015 2.92503V2.92503ZM10.0171 4.92502C8.55843 4.92654 7.16008 5.50745 6.1297 6.53997C5.09932 7.57249 4.52131 8.97203 4.52282 10.4307C4.52433 11.8894 5.10525 13.2878 6.13776 14.3181C7.17028 15.3485 8.56983 15.9265 10.0285 15.925C11.4872 15.9235 12.8856 15.3426 13.9159 14.3101C14.9463 13.2776 15.5243 11.878 15.5228 10.4193C15.5213 8.96063 14.9404 7.56229 13.9079 6.53191C12.8754 5.50152 11.4758 4.92351 10.0171 4.92502Z" fill="#676E85"/>
</svg>


