<svg width="22" height="18" viewBox="0 0 22 18" fill="none" xmlns="http://www.w3.org/2000/svg">
<path d="M6.20833 10.6254C3.38524 11.3646 1.60779 13.1549 1.03139 15.6695C0.863667 16.3889 1.12357 16.599 1.44635 16.6984C3.66526 17.3817 7.77213 17.6244 9.38385 17.6244C10.9956 17.6244 15.1024 17.3817 17.3213 16.6984C17.6441 16.599 17.904 16.3889 17.7363 15.6695C17.1599 13.155 15.3822 11.3646 12.5594 10.6254L9.6412 13.0696C9.49259 13.1941 9.27614 13.1941 9.12753 13.0696L6.20833 10.6254Z" fill="#F2F2F2"/>
<path fill-rule="evenodd" clip-rule="evenodd" d="M9.38364 0C6.92844 0 4.95187 1.99756 4.95187 4.47879V4.78162C4.95187 7.26284 6.92844 9.26041 9.38364 9.26041C11.8388 9.26041 13.8154 7.26284 13.8154 4.78162V4.47879C13.8154 1.99756 11.8388 0 9.38364 0Z" fill="#F2F2F2"/>
<path fill-rule="evenodd" clip-rule="evenodd" d="M17.8246 4.5293V6.7581H15.5958V8.70475H17.8246V10.9336H19.7712V8.70475H22V6.7581H19.7712V4.5293H17.8246Z" fill="#F2F2F2"/>
</svg>
