<svg width="40" height="41" viewBox="0 0 40 41" fill="none" xmlns="http://www.w3.org/2000/svg" xmlns:xlink="http://www.w3.org/1999/xlink">
<path d="M40 20.5C40 31.5457 31.0457 40.5 20 40.5C8.9543 40.5 0 31.5457 0 20.5C0 9.4543 8.9543 0.5 20 0.5C31.0457 0.5 40 9.4543 40 20.5Z" fill="url(#pattern0)"/>
<path d="M40 20.5C40 31.5457 31.0457 40.5 20 40.5C8.9543 40.5 0 31.5457 0 20.5C0 9.4543 8.9543 0.5 20 0.5C31.0457 0.5 40 9.4543 40 20.5Z" fill="url(#pattern1)"/>
<defs>
<pattern id="pattern0" patternContentUnits="objectBoundingBox" width="1" height="1">
<use xlink:href="#image0_240_815" transform="translate(-0.010101) scale(0.00505051)"/>
</pattern>
<pattern id="pattern1" patternContentUnits="objectBoundingBox" width="1" height="1">
<use xlink:href="#image0_240_815" transform="translate(-0.010101) scale(0.00505051)"/>
</pattern>
</defs>
</svg>
